. 
 
http://www.torrenting.com          :     Once & For all ;)


               www . Torrenting . Com 

(((((((((((((= Enjoy No RAR releases =))))))))))))))))))))


...................................NFO:....................................

.[IMG]http://i.imgur.com/2mcr9.png[/IMG]

 
TITLE: 

Detachment 2011 VODRiP READNFO AC3 XViD - INSPiRAL

IMDB: 
 
http://www.imdb.com/title/tt1683526/


SOURCES:

VIDEO - Sors THANKZ BRO
AUDIO - Sors THANKZ BRO
SUBS  - None Add

STATS:

Video
ID                                       : 0
Format                                   : MPEG-4 Visual
Format profile                           : Advanced Simple@L5
Format settings, BVOP                    : 2
Format settings, QPel                    : No
Format settings, GMC                     : No warppoints
Format settings, Matrix                  : Default (MPEG)
Muxing mode                              : Packed bitstream
Codec ID                                 : XVID
Codec ID/Hint                            : XviD
Duration                                 : 1h 37mn
Bit rate                                 : 1 175 Kbps
Width                                    : 608 pixels
Height                                   : 336 pixels
Display aspect ratio                     : 16:9
Frame rate                               : 23.976 fps
Color space                              : YUV
Chroma subsampling                       : 4:2:0
Bit depth                                : 8 bits
Scan type                                : Progressive
Compression mode                         : Lossy
Bits/(Pixel*Frame)                       : 0.240
Stream size                              : 816 MiB (82%)
Writing library                          : XviD 64

Audio
ID                                       : 1
Format                                   : AC-3
Format/Info                              : Audio Coding 3
Mode extension                           : CM (complete main)
Codec ID                                 : 2000
Duration                                 : 1h 37mn
Bit rate mode                            : Constant
Bit rate                                 : 256 Kbps
Channel(s)                               : 2 channels
Channel positions                        : Front: L R
Sampling rate                            : 48.0 KHz
Bit depth                                : 16 bits
Compression mode                         : Lossy
Stream size                              : 178 MiB (18%)
Alignment                                : Aligned on interleaves
Interleave, duration                     : 42 ms (1.00 video frame)
Interleave, preload duration             : 512 ms



NOTES:

READNFO because I had to upscale it as source was 352 x 480 ...upscaled too 608 x 336 ,fixed AR and cleaned up it nicely, considering the source. Also fixed the ivtc issue. No other releases of this around so be happy with the VOD.

Overall would give V/A 7.5


SCREENS:

[IMG]http://i.imgur.com/ZVFRn.png[/IMG]
[IMG]http://i.imgur.com/YzCsw.png[/IMG]
[IMG]http://i.imgur.com/CRVI8.png[/IMG]
[IMG]http://i.imgur.com/QGOCo.png[/IMG]
[IMG]http://i.imgur.com/VUfnA.png[/IMG]


GREETZ: 

Past,Present and Future

[IMG]http://i.imgur.com/2mcr9.png[/IMG]